# xmcd CD database file
#
# Track frame offsets:
#	180
#	24557
#	51911
#	71334
#	93438
#	119678
#	146465
#	167884
#	185477
#	204928
#	223842
#
# Disc length: 3246 seconds
#
# Revision: 0
# Processed by: cddbd v1.5.2PL0 Copyright (c) Steve Scherf et al.
# Submitted via: CDex 1.70beta2
#
DISCID=a30cac0b
DTITLE=Cora Mae Bryant - Born With The Blues
DYEAR=2001
DGENRE=Blues
TTITLE0=No-No Blues
TTITLE1=1999
TTITLE2=Cold and Rainy Day
TTITLE3=Blues is My Best Friend
TTITLE4=McTell, Moss and Weaver
TTITLE5=I Saw That Man
TTITLE6=It Was Weaver
TTITLE7=Ticket Agent
TTITLE8=Keep On Drinking
TTITLE9=Warm it up to Me
TTITLE10=Oh Lordy Mamma
EXTD=YEAR: 2001
EXTT0=
EXTT1=
EXTT2=
EXTT3=
EXTT4=
EXTT5=
EXTT6=
EXTT7=
EXTT8=
EXTT9=
EXTT10=
PLAYORDER=
